<?xml version="1.0" encoding="utf-8"?>
<svg version="1.1" xmlns:cc="http://creativecommons.org/ns#" xmlns:dc="http://purl.org/dc/elements/1.1/" xmlns:rdf="http://www.w3.org/1999/02/22-rdf-syntax-ns#" xmlns="http://www.w3.org/2000/svg" xmlns:xlink="http://www.w3.org/1999/xlink" x="0px" y="0px" viewBox="0 0 1024 768" xml:space="preserve">
<rect fill="#2b2d42" width="1024" height="768" />

 
 <g id="logo-group" transform="translate(-0.000005 1.306) scale(1)">
  <g id="container-group" transform="translate(265 144) scale(2.4)">
   <path id="container" d="m99.86 26.87c-0.38364 0.0044-1.0975 0.02947-1.5868 0.05504-0.48928 0.02558-2.0405 0.10953-3.4472 0.1857-2.2752 0.12399-2.7205 0.16402-4.031 0.36307-0.81009 0.12288-2.1111 0.31192-2.8912 0.41922-0.77951 0.10786-1.7114 0.24575-2.07 0.30636-0.35862 0.0606-1.2471 0.23686-1.9738 0.39087-0.72669 0.15457-1.8976 0.42701-2.6021 0.60548-0.70445 0.17848-1.728 0.45314-2.2752 0.61049-0.54655 0.15679-1.5713 0.47482-2.2774 0.70668-0.70612 0.23185-1.7464 0.58992-2.3124 0.79619-0.56545 0.20628-1.554 0.58769-2.1962 0.84734-0.64218 0.25965-1.668 0.69333-2.2796 0.96355s-1.9755 0.9224-3.0302 1.45c-1.0547 0.52764-2.4064 1.2315-3.0024 1.5651-0.59603 0.33304-1.8598 1.0753-2.8078 1.6491-0.94798 0.57379-1.9221 1.1815-2.1645 1.3511-0.24242 0.16958-1.5779 1.1815-2.9674 2.2485l-2.5276 1.9404-2.4531 2.3519c-1.3489 1.2938-2.6799 2.6126-2.9568 2.9307-0.27689 0.31803-0.83789 0.99079-1.2471 1.4956-0.40866 0.50429-0.87014 1.072-1.0253 1.2605-0.15512 0.18848-0.31136 0.3386-0.34694 0.3336s-0.32359 0.27967-0.6394 0.63273-0.70112 0.79119-0.85568 0.973c-0.15512 0.18181-0.79452 1.0064-1.4211 1.832-0.62661 0.82566-1.5651 2.0639-2.0856 2.7522-0.54933 0.72669-1.1682 1.6235-1.4762 2.1406-0.2919 0.48928-0.63829 1.077-0.77006 1.3066-0.13233 0.22907-0.30747 0.50429-0.39031 0.6116-0.08229 0.10731-0.55266 0.93241-1.0442 1.8348-0.51708 0.94798-1.2805 2.4736-1.8087 3.614-0.50262 1.0853-1.0759 2.3113-1.2732 2.7244-0.19794 0.41311-0.52486 1.1637-0.72669 1.668-0.20238 0.50429-0.7089 1.8431-1.1265 2.9746-0.41756 1.1315-0.90406 2.4825-1.082 3.0024-0.19794 0.58046-0.61382 2.1072-1.0775 3.9576-0.45203 1.8037-0.82121 3.4094-0.92018 4.0032-0.09118 0.54488-0.24019 1.5785-0.33082 2.2974-0.09063 0.71835-0.25354 2.1573-0.36196 3.197s-0.23408 2.403-0.27967 3.0302c-0.04559 0.62661-0.11176 1.9026-0.14678 2.8356-0.03725 0.99302-0.04893 2.4481-0.02836 3.51 0.01946 0.99802 0.0606 2.274 0.09063 2.8356 0.03058 0.56211 0.09396 1.509 0.14067 2.1056 0.04726 0.59603 0.1479 1.6469 0.22351 2.3352 0.07617 0.68777 0.2135 1.7764 0.30524 2.4186 0.09118 0.64218 0.22907 1.5301 0.3058 1.9738 0.07673 0.44313 0.22796 1.2566 0.33582 1.807 0.10786 0.55044 0.28356 1.3883 0.39087 1.8626 0.10675 0.47371 0.30691 1.3105 0.44424 1.8587 0.13789 0.54821 0.41311 1.5618 0.6116 2.2518 0.19905 0.68999 0.56045 1.8481 0.80342 2.5737 0.24242 0.72558 0.60771 1.7514 0.81065 2.2796s0.53042 1.3483 0.72725 1.8226c0.19738 0.47427 0.55934 1.2994 0.80509 1.8348 0.24631 0.53487 0.6066 1.291 0.8012 1.6797 0.1946 0.38808 0.34027 0.7417 0.32359 0.78451-0.01668 0.0434 0.23686 0.58825 0.56323 1.2121 0.32637 0.62328 0.81954 1.5457 1.0959 2.0505 0.27689 0.50429 0.73336 1.3177 1.0147 1.807 0.28189 0.48928 0.80731 1.3778 1.1676 1.9738 0.36084 0.59603 0.90517 1.4717 1.2099 1.946 0.30413 0.47427 0.84067 1.2844 1.1921 1.8009 0.35139 0.51597 0.86569 1.2543 1.1426 1.6402 0.27744 0.38531 0.76784 1.0514 1.0903 1.4795 0.32248 0.42812 0.92796 1.2037 1.345 1.7236 0.41756 0.51986 1.0175 1.2454 1.3333 1.6124 0.31636 0.36696 0.93853 1.0675 1.3833 1.5568 0.4448 0.48928 1.2844 1.3655 1.8659 1.9477 0.58158 0.58157 1.4879 1.4495 2.0149 1.9282 0.52709 0.47871 1.39 1.2304 1.9182 1.6708 0.5282 0.44035 1.3355 1.1003 1.7942 1.4667 0.4587 0.36696 1.2343 0.96689 1.7236 1.3338 0.48928 0.36696 1.152 0.85513 1.4734 1.0848 0.32137 0.22963 0.89683 0.63106 1.2788 0.89183 0.38253 0.26132 1.6085 1.0002 2.7244 1.6419 1.1164 0.64218 2.3296 1.3377 2.6966 1.5457 0.36696 0.2085 0.85513 0.46481 1.0842 0.5699 0.22963 0.10564 1.693 0.76172 3.2526 1.4584 1.5596 0.69612 3.0235 1.3344 3.2526 1.4178 0.22963 0.0829 0.95521 0.3336 1.6124 0.55656 0.65775 0.22351 1.996 0.69389 2.9746 1.0458 0.97856 0.35139 2.2546 0.76894 2.8356 0.9274 0.58102 0.15791 1.5696 0.4348 2.1962 0.61438 0.62717 0.18015 1.44 0.42924 1.807 0.55322 0.36696 0.12455 0.9174 0.29858 1.2232 0.38642 0.3058 0.0884 0.85624 0.21128 1.2232 0.27411 0.36696 0.0623 1.0303 0.16402 1.4734 0.22629 0.44369 0.0617 1.4945 0.19961 2.3352 0.3058 0.84123 0.1062 1.8543 0.2174 2.2518 0.24798 0.39754 0.0306 2.0989 0.0728 3.7808 0.0934 1.6819 0.0211 5.0724 0.0395 7.5338 0.04 3.7908 0.001 4.6165-0.0128 5.3932-0.0917 0.50485-0.0511 1.9432-0.21906 3.197-0.37308 1.2538-0.15401 2.5926-0.3436 2.9746-0.422 0.38253-0.0784 1.7748-0.41533 3.0941-0.74838 1.3194-0.33248 2.78-0.7189 3.2459-0.8579 0.46593-0.139 2.1862-0.77896 3.823-1.4217 1.6369-0.64329 3.2537-1.3083 3.5929-1.4778 0.33916-0.17014 1.6802-0.87181 2.9796-1.5596 1.2999-0.68778 2.4503-1.3027 2.5576-1.3666 0.10731-0.0634 0.58936-0.37308 1.0725-0.68777 0.48261-0.31526 1.8459-1.2282 3.0302-2.0288 1.1837-0.80064 2.9657-2.0438 3.9593-2.7616 0.99413-0.71835 2.1951-1.594 2.6688-1.9454 0.47427-0.35195 1.3133-1.0547 1.8648-1.5612 0.55156-0.50707 1.6647-1.5384 2.4742-2.2918 0.80898-0.75394 1.7725-1.7047 2.1406-2.1128 0.36808-0.40866 1.0208-1.1431 1.4512-1.6324 0.42979-0.48928 0.98802-1.1148 1.2404-1.39 0.25242-0.27522 0.75282-0.86347 1.112-1.3066 0.35918-0.44369 1.2332-1.5902 1.9421-2.5482 0.7089-0.95799 1.524-2.0516 1.8114-2.4292 0.28745-0.37808 0.64607-0.87014 0.79674-1.0936 0.15068-0.22352 0.50652-0.78174 0.79008-1.2404 0.28356-0.4587 1.047-1.6346 1.6958-2.6132 0.64941-0.97856 1.2788-1.9543 1.3989-2.1684 0.12009-0.21406 0.30302-0.60215 0.40643-0.8618 0.10342-0.26021 0.38475-0.91073 0.62606-1.4456 0.2413-0.53543 0.74837-1.5768 1.1276-2.3152 0.4448-0.86514 1.182-2.4842 2.0761-4.5592 1.0303-2.3897 1.4534-3.4389 1.6463-4.0788 0.14289-0.47427 0.4081-1.4239 0.58936-2.1106 0.18181-0.68721 0.33026-1.2682 0.33026-1.291 0-0.0233-0.0373-0.0278-0.0828-0.0106-0.0673 0.0261-0.0628-0.0139 0.0239-0.21017 0.0589-0.13288 0.1707-0.46037 0.24798-0.7278 0.0773-0.26688 0.17903-0.70501 0.22629-0.973 0.0467-0.268 0.11176-0.97467 0.14456-1.5702 0.0323-0.59603 0.0917-1.2727 0.13233-1.504 0.04-0.23074 0.12899-0.55044 0.19794-0.70945 0.0684-0.15958 0.15568-0.28968 0.1946-0.28968 0.0384 0 0.0851-0.0562 0.10341-0.1251 0.0183-0.0689 0.0339-0.32915 0.0345-0.57824 0-0.24909-0.05-0.79508-0.11231-1.2132-0.0656-0.44035-0.0973-0.84623-0.0762-0.96466 0.02-0.11231 0.0606-0.2502 0.089-0.30525 0.035-0.0678 0.03-0.12788-0.015-0.18181-0.0445-0.0539-0.0562-0.18793-0.0345-0.39976 0.0234-0.22463 0.0662-0.34528 0.14511-0.40977 0.0617-0.0495 0.13511-0.19182 0.16235-0.31526 0.04-0.17792 0.0295-0.27188-0.0534-0.45703-0.0578-0.12788-0.10453-0.33527-0.10453-0.45981 0-0.1668 0.0373-0.26632 0.139-0.37252 0.0901-0.094 0.15679-0.25131 0.19015-0.44758 0.0284-0.1668 0.0684-0.74115 0.0879-1.276 0.02-0.53543 0.0612-1.0886 0.0906-1.2304 0.0317-0.14734 0.11287-0.31191 0.19071-0.38475 0.11286-0.10675 0.13566-0.11231 0.13566-0.0345 0 0.0511 0.0222 0.0928 0.0489 0.0928s0.0801-0.0751 0.11787-0.1668c0.0378-0.0917 0.10064-0.1668 0.13956-0.1668 0.0389 0 0.0862 0.0395 0.10452 0.0879 0.0189 0.0484 0.0356 0.17959 0.0373 0.2919l0.004 0.20405 0.0562-0.139c0.0339-0.0834 0.0478-0.54877 0.0345-1.1676-0.0117-0.56601-0.0417-1.0725-0.0656-1.1259-0.0245-0.05338-0.0739-0.0973-0.11009-0.0973-0.0367 0-0.16402-0.10008-0.28356-0.2224-0.12732-0.13066-0.2691-0.2224-0.34361-0.2224-0.0817 0-0.15401 0.05393-0.20461 0.1529-0.0434 0.08396-0.10564 0.2502-0.13844 0.36918-0.0512 0.18682-0.0445 0.23575 0.0495 0.35529 0.0601 0.0762 0.10898 0.16291 0.10898 0.19237 0 0.0295-0.0712 0.15958-0.15846 0.28857-0.1251 0.1857-0.1718 0.34361-0.22462 0.75838-0.0367 0.28857-0.10509 0.67443-0.15179 0.85791s-0.17459 0.6205-0.28412 0.97078c-0.11398 0.36306-0.19793 0.74559-0.19571 0.8896 0.002 0.139 0.0217 0.55544 0.0434 0.92629 0.03 0.51097 0.0161 0.84735-0.0567 1.3878-0.0806 0.59937-0.11954 0.74504-0.24298 0.90628-0.12176 0.15957-0.14678 0.24964-0.14567 0.53042 0.00056 0.18571 0.0233 0.53821 0.0506 0.78285 0.0434 0.39142 0.0395 0.43646-0.0334 0.37641-0.0728-0.06-0.10286 0.0912-0.2363 1.1954-0.0845 0.695-0.21573 1.7014-0.29079 2.2368-0.0756 0.53487-0.20072 1.2983-0.278 1.6958-0.0767 0.39754-0.48817 2.0906-0.91351 3.763-0.42589 1.6719-0.77395 3.0786-0.77395 3.1258 0 0.0473-0.134 0.5054-0.29746 1.0186-0.16402 0.51319-0.31414 1.0002-0.33416 1.0825-0.02 0.0823-0.0111 0.16514 0.0195 0.18404 0.0323 0.0195-0.035 0.16791-0.15901 0.35084-0.11843 0.17402-0.37697 0.64162-0.57546 1.0392-0.19794 0.39754-0.60549 1.2933-0.90517 1.991-0.30024 0.69722-0.56323 1.2393-0.58491 1.2043-0.0239-0.0389-0.14123 0.089-0.29802 0.32471-0.14178 0.21406-0.31747 0.52319-0.38975 0.68666-0.0728 0.16402-0.22463 0.61048-0.3375 0.99246-0.11286 0.38197-0.2969 0.86513-0.40921 1.0742-0.11287 0.2085-0.32526 0.51485-0.4726 0.67999-0.14734 0.16568-0.25187 0.32637-0.23241 0.35806 0.0195 0.0311-0.006 0.20072-0.0562 0.37586-0.05 0.17569-0.22351 0.56934-0.38475 0.87514-0.16179 0.3058-0.44313 0.79397-0.62605 1.0842-0.18293 0.29023-0.42812 0.70056-0.54544 0.91128-0.11676 0.21017-0.28189 0.58269-0.3664 0.82733-0.0845 0.24409-0.17681 0.46704-0.20517 0.4954-0.0278 0.0278-0.11676 0.0562-0.19682 0.0623-0.12621 0.009-0.2591 0.19238-1.0069 1.3889-0.47427 0.75783-0.98134 1.5334-1.127 1.7236-0.14567 0.19015-0.74059 0.94909-1.3222 1.6869-0.58157 0.73726-1.3878 1.7631-1.7909 2.2796-0.40366 0.51597-0.88182 1.1048-1.0631 1.3077-0.1807 0.2035-0.54098 0.65386-0.80008 1.0008-0.2591 0.3475-0.74838 0.94409-1.087 1.3266-0.3386 0.38197-1.2466 1.3455-2.0172 2.1406-0.77117 0.79508-1.6552 1.7436-1.9649 2.1078-0.4676 0.54932-0.77395 0.83233-1.8059 1.668-0.68332 0.55322-1.7725 1.4061-2.4208 1.8954-0.6483 0.48928-1.4467 1.1098-1.7742 1.3794-0.32693 0.2691-0.59492 0.47371-0.59492 0.45425 0-0.0195-0.13122 0.0756-0.2919 0.21128-0.16068 0.13622-0.57991 0.45925-0.9313 0.71891-0.35139 0.25965-1.39 0.98022-2.3074 1.6018-0.9174 0.62161-1.9304 1.3172-2.2518 1.5457-0.32081 0.22852-0.77673 0.57491-1.013 0.76895-0.31025 0.2552-0.47371 0.35306-0.59159 0.35306-0.089 0-0.39642 0.0612-0.68276 0.13622-0.28634 0.0745-0.9958 0.31414-1.5768 0.53209-0.58102 0.21795-1.1687 0.46704-1.3066 0.55322-0.13733 0.0867-0.53821 0.31859-0.8896 0.51653-0.35139 0.19793-1.077 0.58602-1.6124 0.86291-0.53487 0.27689-1.6107 0.75894-2.3908 1.0714-0.77951 0.31247-1.8431 0.74893-2.363 0.97022-0.51986 0.22129-1.0453 0.41756-1.1676 0.43646-0.12232 0.0183-0.57268 0.16346-1.0008 0.32248-0.66164 0.2452-0.84123 0.28968-1.1954 0.29579-0.37308 0.007-0.62272 0.0762-2.363 0.65441-1.0703 0.35529-2.4581 0.78619-3.0836 0.95744-0.78674 0.21461-1.7219 0.41255-3.0302 0.64106-1.0408 0.18126-2.2157 0.38198-2.6104 0.4448-0.39476 0.0634-1.1326 0.16458-1.6402 0.22574-0.50707 0.0606-1.5601 0.134-2.3402 0.16291-0.77951 0.0289-1.668 0.0673-1.9738 0.0845-0.3058 0.0178-1.3438 0.0323-2.3074 0.0328l-1.7514 0.00056-2.4742-0.22574c-1.3605-0.12398-2.9468-0.28856-3.5245-0.36584-0.57824-0.0767-1.1537-0.16347-1.2788-0.19238-0.12566-0.0289-0.42145-0.0534-0.65719-0.0545-0.23574-0.00055-1.0114 0.0606-1.7236 0.13567-0.71224 0.0751-1.4389 0.15178-1.6146 0.16958-0.18737 0.0195-0.3197 0.0111-0.3197-0.02 0-0.0289-0.16902-0.0812-0.3753-0.11676-0.20628-0.035-0.66275-0.12732-1.0147-0.20516-0.35139-0.0773-1.0898-0.28634-1.6402-0.46426-0.55044-0.17792-1.1437-0.35418-1.3177-0.39254-0.17458-0.0378-0.31192-0.0923-0.3058-0.12065 0.0061-0.0278-0.22018-0.11009-0.50374-0.18293-0.283-0.0723-0.97078-0.28244-1.529-0.46592-0.55767-0.18348-1.2643-0.39643-1.5701-0.4726-0.3058-0.0762-0.6811-0.15513-0.834-0.17626-0.1529-0.0211-0.3197-0.0745-0.37085-0.11898-0.05115-0.045-0.27633-0.12677-0.5004-0.18237-0.22407-0.055-0.48205-0.11731-0.57324-0.13844l-0.16513-0.0378 0.1251-0.0945 0.12566-0.0945-0.62717-0.21406c-0.34472-0.11787-1.1148-0.39698-1.7114-0.61994-0.59603-0.22296-1.5095-0.57935-2.0294-0.79174-0.51986-0.2124-1.3778-0.57824-1.9065-0.81232-0.52876-0.23463-1.2666-0.57212-1.6402-0.7506-0.37363-0.17792-0.99135-0.47649-1.3739-0.66275-0.38197-0.18626-1.1076-0.55545-1.6124-0.8201-0.50429-0.26466-1.3678-0.73225-1.9182-1.0397-0.55044-0.30691-1.5012-0.85902-2.1128-1.2265-0.6116-0.36696-1.6002-0.98023-2.1962-1.3616-0.59603-0.38197-1.3222-0.85791-1.6124-1.0581-0.29023-0.1996-1.266-0.89016-2.1684-1.534-0.90183-0.64385-1.8559-1.3461-2.12-1.5601-0.2641-0.21406-1.5401-1.3294-2.8356-2.4786l-2.356-2.0895-2.1506-2.3308c-1.1832-1.2821-2.3385-2.5626-2.5687-2.8456-0.22963-0.28356-0.85012-1.1037-1.3794-1.8226-0.52931-0.71891-0.99913-1.3628-1.0442-1.4306l-0.08118-0.12399 0.13622 0.1112c0.07506 0.0612-0.01279-0.0639-0.19571-0.278-0.18237-0.21406-0.57157-0.66442-0.86402-1.0008-0.29301-0.33638-0.55489-0.64941-0.58158-0.695-0.04226-0.0717-0.03614-0.0728 0.04504-0.007 0.05171 0.0423 0.09396 0.0578 0.09396 0.0345 0-0.0228-0.1301-0.27021-0.28912-0.54877-0.15846-0.27911-0.51764-0.88237-0.7973-1.3411-0.27967-0.4587-0.79286-1.2844-1.1404-1.8348-0.34694-0.55044-0.95298-1.539-1.3466-2.1962-0.39365-0.65775-0.99246-1.7525-1.3311-2.4342-0.3386-0.6811-0.59881-1.2549-0.5788-1.2749 0.02002-0.02 0.06616-0.007 0.1023 0.0295 0.03614 0.0361 0.08729 0.0656 0.11398 0.0656 0.02613 0 0.03058-0.0545 0.01001-0.12065-0.02113-0.0662-0.12677-0.25854-0.23463-0.42701-0.10731-0.16847-0.3286-0.58324-0.49095-0.92185-0.16235-0.3386-0.45592-1.092-0.65219-1.6741-0.19627-0.58214-0.42534-1.1948-0.5093-1.3622-0.0834-0.1668-0.24909-0.43368-0.36807-0.59326-0.11898-0.15901-0.21628-0.31858-0.21628-0.35361 0-0.0367 0.0467-0.0523 0.10786-0.0367l0.10842 0.0284-0.10342-0.25799c-0.05671-0.14178-0.39643-0.99635-0.75505-1.8982-0.35862-0.90239-0.71224-1.8532-0.78507-2.1128-0.07339-0.26021-0.49484-1.8298-0.93742-3.4883l-0.83-3.03-0.473-3.15c-0.26021-1.7358-0.49818-3.331-0.5282-3.5451-0.03058-0.21406-0.09285-1.37-0.139-2.5682-0.04559-1.1987-0.10786-2.2996-0.13844-2.4464-0.03002-0.14734-0.09508-0.55545-0.14345-0.90684-0.05727-0.41478-0.09897-1.2604-0.11898-2.4086-0.02113-1.2238-0.0017-2.4142 0.06172-3.8642 0.0506-1.152 0.13066-2.4453 0.17681-2.8734 0.0467-0.42812 0.1946-1.5168 0.3286-2.4186 0.134-0.90239 0.32026-2.2657 0.41366-3.0302 0.09341-0.7645 0.27355-1.9532 0.39921-2.641 0.13511-0.7367 0.26076-1.276 0.30524-1.3116 0.04114-0.03392 0.16346-0.49484 0.27133-1.0253 0.10731-0.53042 0.28356-1.3199 0.39087-1.7547 0.10675-0.43479 0.31859-1.2288 0.47038-1.7636 0.15234-0.53543 0.43702-1.4573 0.63328-2.0489 0.19627-0.59158 0.52542-1.5257 0.7317-2.0761 0.20628-0.55044 0.63162-1.6013 0.9452-2.3352 0.31358-0.73392 0.8251-1.8726 1.1359-2.5298 0.31136-0.65719 0.8429-1.7208 1.1821-2.363 0.3386-0.64218 0.84067-1.5679 1.1153-2.0572 0.27466-0.48928 0.83845-1.4528 1.2532-2.1406 0.41422-0.68833 1.0914-1.7742 1.5045-2.4142 0.41311-0.6394 0.90294-1.3694 1.0881-1.6219 0.18515-0.25242 0.74838-1.0175 1.251-1.7002 0.50262-0.68277 1.3049-1.767 1.7825-2.4091 0.4776-0.64218 1.1192-1.4678 1.4256-1.8348 0.3058-0.36696 0.77618-0.90517 1.0447-1.1954 0.28189-0.30469 0.5332-0.52876 0.59381-0.52987 0.06783-0.0011 0.24798-0.19126 0.50096-0.5282 0.2174-0.28968 0.6027-0.7645 0.85568-1.0547 0.25298-0.29079 0.83178-0.89182 1.286-1.3355 0.45481-0.44424 1.2643-1.1837 1.7992-1.643 0.53543-0.45926 1.385-1.1793 1.8882-1.6002 0.50318-0.42034 1.2916-1.0342 1.7514-1.3633 0.45981-0.32915 1.2994-0.92796 1.8648-1.3305 0.56601-0.40254 1.5112-1.1064 2.1011-1.564 0.58992-0.45814 1.3405-1.0186 1.668-1.2466 0.32748-0.2274 0.7456-0.52208 0.92908-0.65441l0.3336-0.24075-0.10175 0.15624-0.10175 0.15624 0.27744-0.21906c0.15234-0.12065 0.68666-0.47149 1.1871-0.78007 0.5004-0.30858 1.0058-0.6444 1.1237-0.74615 0.12288-0.1062 0.2174-0.24019 0.22184-0.31247 0.0056-0.10564 0.09174-0.16291 0.50707-0.33749 0.27522-0.11565 0.69-0.34639 0.92129-0.51319 0.2313-0.1668 0.6622-0.44702 0.95743-0.62328 0.29524-0.17625 0.99413-0.54154 1.5529-0.81232 0.55878-0.27077 1.4167-0.66053 1.906-0.86569 0.48928-0.20516 1.1276-0.45981 1.4178-0.56601 0.29023-0.10564 1.2204-0.42756 2.0667-0.71446 0.84623-0.28745 1.8476-0.64552 2.2251-0.79564 0.37697-0.15068 0.90739-0.37641 1.1782-0.50151 0.27022-0.12454 0.46092-0.19015 0.42312-0.14456-0.04615 0.0556 0.02836 0.04003 0.23018-0.04837 0.16402-0.07228 0.51152-0.20794 0.77117-0.30191 0.26021-0.09396 0.68555-0.23408 0.9452-0.31136 0.26021-0.07784 0.69778-0.18904 0.973-0.24798s0.58825-0.12176 0.695-0.13956l0.1946-0.03336-0.139 0.08062-0.139 0.08006 0.11342 0.0017c0.06227 0.0011 0.47538-0.06227 0.9174-0.14067 0.44202-0.07895 1.4172-0.28078 2.1662-0.44869 0.74949-0.16791 1.6519-0.36474 2.006-0.43702 0.35417-0.07284 1.0169-0.19571 1.4734-0.27355 0.45648-0.07728 1.5179-0.27744 2.3586-0.44369 0.84123-0.16624 1.867-0.35362 2.2796-0.41533 0.41311-0.06227 1.0636-0.14122 1.4456-0.17625 0.38253-0.03503 0.79508-0.05504 0.9174-0.04448l0.2224 0.0189-0.2224 0.12288c-0.12232 0.06728-0.20683 0.12343-0.18848 0.1251 0.0189 0.0011 0.16346-0.02224 0.32081-0.05226 0.1579-0.03002 0.70556-0.09063 1.2171-0.13566 0.51152-0.04448 1.6152-0.11231 2.4525-0.15068 1.2115-0.05504 1.7909-0.05504 2.8356-0.000556 0.72224 0.03781 1.594 0.0834 1.9371 0.1023 0.3425 0.01835 0.61049 0.05449 0.59437 0.08006-0.0156 0.02558 0.004 0.03614 0.0439 0.02391 0.0395-0.01223 0.3664-0.03725 0.72558-0.05504l0.6533-0.0328v0.10453c0 0.07284 0.0534 0.11509 0.17403 0.139 0.0951 0.01946 0.35417 0.03503 0.57435 0.03503 0.22073 0 0.79952 0.03836 1.286 0.08451 0.4865 0.0467 2.1823 0.24798 3.768 0.44758s3.162 0.41255 3.5028 0.47316c0.34082 0.0606 0.94297 0.18793 1.3383 0.283 0.63829 0.1529 0.70723 0.1807 0.61549 0.24742-0.0567 0.0417-0.0923 0.08396-0.0795 0.09452 0.0134 0.01001 0.2869 0.06227 0.60771 0.11565 0.32137 0.05282 1.0931 0.2085 1.7153 0.34583 0.62216 0.13678 1.5351 0.36418 2.0294 0.50485 0.49373 0.14067 1.5485 0.50485 2.3435 0.80898 0.79508 0.30358 1.8459 0.69667 2.3352 0.87348 0.48928 0.17625 1.0586 0.37586 1.2649 0.44369 0.20628 0.06783 0.3753 0.14234 0.3753 0.16569s0.25632 0.15068 0.5699 0.283c0.31358 0.13288 1.0325 0.44702 1.5985 0.69889 0.56601 0.25187 1.6291 0.74337 2.363 1.0925 0.73392 0.34972 1.8976 0.93074 2.5854 1.2921 0.68833 0.36084 1.6763 0.8946 2.1962 1.1865 0.51986 0.29134 1.3705 0.78396 1.8904 1.0953 0.51986 0.3108 1.3705 0.83567 1.8904 1.1665 0.51986 0.33026 1.2582 0.81454 1.6402 1.0753 0.38253 0.26076 0.99524 0.68777 1.3622 0.94798 0.36696 0.26076 1.0675 0.7734 1.5568 1.1392 0.48928 0.36585 1.3027 0.99524 1.807 1.3989 0.50485 0.4031 1.3055 1.0659 1.7792 1.4723 0.47427 0.40699 1.1248 0.97912 1.4456 1.2716 0.32137 0.29246 0.5838 0.54933 0.5838 0.57101 0 0.02113 0.18793 0.16124 0.417 0.31136 0.22963 0.15012 0.45425 0.31803 0.49984 0.37363l0.0829 0.10119-0.13289-0.04226-0.13288-0.04226 0.13233 0.18737c0.0728 0.10286 0.29468 0.37419 0.49261 0.60382 0.19794 0.22907 1.0781 1.1548 1.9566 2.0572 0.87792 0.90183 1.6919 1.7631 1.8092 1.9126 0.11732 0.15012 0.31136 0.38308 0.43201 0.51819 0.1201 0.13455 0.26744 0.27133 0.32638 0.30302 0.0801 0.04281 0.12009 0.03836 0.15345-0.01612 0.025-0.04059 0.0545-0.06172 0.0651-0.04726s0.19349 0.23852 0.407 0.49873c0.21406 0.26021 0.566 0.69778 0.78229 0.973 0.21684 0.27522 0.75671 0.98801 1.2004 1.5846 0.44313 0.59603 1.132 1.5596 1.5307 2.1406 0.39921 0.58102 1.0364 1.544 1.4161 2.1406 0.38031 0.59603 0.96633 1.5468 1.3027 2.1128 0.33638 0.56601 0.84957 1.4539 1.1415 1.9738 0.29134 0.51986 0.80064 1.4578 1.132 2.085 0.33138 0.62661 0.86959 1.6908 1.1965 2.3647 0.32637 0.67387 0.85957 1.817 1.1848 2.5404 0.39365 0.87626 0.59103 1.3822 0.59103 1.5134 0 0.13455-0.0256 0.19794-0.0795 0.19794s0.0678 0.3058 0.38309 0.9591c0.25409 0.52764 0.61771 1.3455 0.80786 1.8181 0.19016 0.4726 0.52932 1.4111 0.75394 2.085 0.22462 0.67443 0.53265 1.6925 0.68444 2.2624 0.15234 0.5699 0.39031 1.5457 0.52931 2.1684 0.139 0.62272 0.33971 1.6074 0.44591 2.1884 0.1062 0.58102 0.25632 1.4817 0.3336 2.0016 0.0773 0.51986 0.20294 1.4328 0.27967 2.0294 0.0762 0.59603 0.20238 1.7025 0.27967 2.4581 0.0778 0.75616 0.14122 1.4128 0.14122 1.4595 0 0.04726 0.025 0.08562 0.0556 0.08562s0.0562-0.03114 0.0567-0.0695c0-0.03836 0.025-0.10731 0.0556-0.1529 0.0484-0.07395 0.0606-0.07395 0.10898 0 0.0389 0.05894 0.055-0.02836 0.0556-0.29857 0.00055-0.21017-0.0378-0.6483-0.0856-0.973-0.0484-0.32526-0.19738-1.0469-0.33193-1.6041-0.13399-0.55711-0.28133-1.2199-0.32693-1.4734-0.0456-0.25298-0.0995-0.65441-0.12009-0.89127-0.0245-0.28356-0.0172-0.4309 0.0206-0.4309 0.0317 0 0.0701 0.03114 0.0856 0.0695 0.0156 0.03836 0.03-0.0056 0.0322-0.0973 0.002-0.09174-0.0222-0.26021-0.0534-0.37363-0.0317-0.11398-0.0906-0.22629-0.13066-0.2502-0.0406-0.02391-0.1012-0.0973-0.13567-0.16291-0.0345-0.06561-0.0667-0.29802-0.0712-0.51652-0.004-0.21851 0.009-0.41422 0.03-0.43479 0.0206-0.02113 0.0612-0.0011 0.0901 0.04392 0.0356 0.0556 0.0417 0.0189 0.0183-0.11287-0.0183-0.10731-0.0923-0.4776-0.16347-0.82344-0.0717-0.34583-0.30858-1.2966-0.52708-2.1128-0.21851-0.81621-0.54433-1.9983-0.72392-2.6271-0.17903-0.62828-0.40421-1.365-0.49984-1.6363-0.0962-0.27133-0.27188-0.70501-0.39142-0.96355s-0.2174-0.53598-0.2174-0.6166-0.0456-0.30858-0.10175-0.50652c-0.0556-0.19794-0.28411-0.87348-0.50651-1.5001-0.22296-0.62717-0.44703-1.34-0.49762-1.5846-0.0617-0.2969-0.20628-0.6761-0.43424-1.1398-0.18793-0.38253-0.3942-0.7506-0.45814-0.81843-0.0639-0.06839-0.30636-0.56879-0.53877-1.112-0.23241-0.54377-0.68277-1.539-1.0008-2.2118-0.31859-0.67276-0.83733-1.7114-1.1537-2.3074-0.31636-0.59659-0.81343-1.499-1.1042-2.0066-0.29135-0.50707-0.77396-1.3199-1.0731-1.807-0.29858-0.4865-0.84957-1.3472-1.2232-1.9132-0.37419-0.56601-0.96633-1.43-1.3155-1.921-0.34972-0.49095-0.87014-1.2037-1.1565-1.5846-0.28634-0.38086-0.80842-1.0553-1.1604-1.4984-0.35195-0.44369-0.95354-1.1815-1.3372-1.6402-0.38364-0.4587-1.0981-1.2832-1.5879-1.8326-0.48983-0.54877-1.4434-1.5746-2.1195-2.2796-0.67554-0.70445-1.7764-1.797-2.4464-2.4275-0.66942-0.6305-1.345-1.256-1.5001-1.39-0.15512-0.134-1.2265-0.96911-2.3808-1.8559-1.1543-0.88682-2.7038-2.0722-3.4428-2.6338-0.73948-0.56212-1.807-1.3522-2.373-1.7558-0.56601-0.40366-1.4417-1.0091-1.946-1.3455-0.50429-0.33638-1.3049-0.85068-1.7792-1.142-0.47371-0.2919-1.1615-0.69778-1.5279-0.90294-0.3664-0.20461-0.67943-0.39309-0.695-0.41811-0.0161-0.02446-0.3664-0.18348-0.77951-0.3525-0.41311-0.16958-1.226-0.51986-1.807-0.77896-0.58102-0.2591-1.2566-0.56434-1.5012-0.67832-0.24464-0.11398-0.8846-0.42701-1.4222-0.69556l-0.978-0.48872-0.9402-0.20516c-0.80175-0.17458-1.0825-0.26632-1.9015-0.62105-0.5282-0.22907-1.4039-0.58658-1.946-0.79564-0.54154-0.2085-1.4856-0.54599-2.0972-0.7506-0.6116-0.20405-1.5874-0.5054-2.1684-0.66998-0.58102-0.16402-1.5068-0.41088-2.0572-0.54822-0.55044-0.13678-1.4139-0.33749-1.9182-0.4448-0.50429-0.10786-1.3928-0.28467-1.9738-0.39254-0.58102-0.10786-1.6191-0.28356-2.3074-0.38976-0.68777-0.1062-1.7514-0.2552-2.363-0.33138-0.6116-0.07673-1.4745-0.17625-1.9182-0.22184-0.44313-0.04615-1.0186-0.09786-1.2788-0.11565-0.25965-0.01779-1.4973-0.08173-2.75-0.14178s-2.5915-0.10564-2.9746-0.10119zm73.206 67.685-0.0923-0.1668 0.0306 0.4726c0.0167 0.25965 0.0417 0.52876 0.0556 0.5977s0.0534 0.1251 0.0873 0.1251c0.0417 0 0.0534-0.13733 0.0361-0.4309-0.015-0.25242-0.0634-0.49984-0.11732-0.5977zm0.0834 1.9315c-0.0239-0.11398-0.0595-0.1807-0.0789-0.14845-0.02 0.03225 0.11676 0.52876 0.30413 1.1042 0.27856 0.85457 0.34917 1.0225 0.38809 0.91684 0.0284-0.07506 0.0239-0.23908-0.009-0.39587-0.0311-0.14678-0.17069-0.49262-0.30914-0.76839-0.13844-0.27578-0.27132-0.59436-0.29468-0.70834zm0.62495 2.9891-0.084-0.139 0.0367 0.1946c0.02 0.10675 0.0573 0.23185 0.0834 0.278 0.0361 0.06283 0.0478 0.04948 0.0473-0.0556 0-0.07673-0.0378-0.20183-0.0834-0.278z" fill="#8769e6"/>
  </g>
  <path id="path8144" style="font-variant-ligatures:normal" d="m369.04 437.03h-80.469v-36.048h66.98v-33.258h-66.98v-36.979h80.469v-33.258h-118.85v172.8h118.84z" stroke-miterlimit="2" stroke-width="0" fill="#c1eeff"/>
  <path id="path8146" style="font-variant-ligatures:normal" d="m588.54 297.48h-43.26l-51.398 92.331-51.166-92.331h-46.049l95.819 172.8z" stroke-miterlimit="2" stroke-width="0" fill="#c1eeff"/>
  <path id="path8148" style="font-variant-ligatures:normal" d="m773.81 470.52-73.027-131.4-22.792-41.398-21.862 39.072-74.19 133.73h46.049l51.166-92.331 51.398 92.331z" stroke-miterlimit="2" stroke-width="0" fill="#c1eeff"/>
 </g>

</svg>