<svg id="visual" viewBox="0 0 960 540" width="960" height="540" xmlns="http://www.w3.org/2000/svg" xmlns:xlink="http://www.w3.org/1999/xlink" version="1.1"><rect x="0" y="0" width="960" height="540" fill="#000"></rect><path d="M0 224L22.8 242.7C45.7 261.3 91.3 298.7 137 315.2C182.7 331.7 228.3 327.3 274 317.5C319.7 307.7 365.3 292.3 411.2 289.5C457 286.7 503 296.3 548.8 306.5C594.7 316.7 640.3 327.3 686 330.7C731.7 334 777.3 330 823 314.3C868.7 298.7 914.3 271.3 937.2 257.7L960 244L960 541L937.2 541C914.3 541 868.7 541 823 541C777.3 541 731.7 541 686 541C640.3 541 594.7 541 548.8 541C503 541 457 541 411.2 541C365.3 541 319.7 541 274 541C228.3 541 182.7 541 137 541C91.3 541 45.7 541 22.8 541L0 541Z" fill="#2b2d42"></path><path d="M0 270L22.8 272.3C45.7 274.7 91.3 279.3 137 290.8C182.7 302.3 228.3 320.7 274 320C319.7 319.3 365.3 299.7 411.2 305.8C457 312 503 344 548.8 352.2C594.7 360.3 640.3 344.7 686 331.2C731.7 317.7 777.3 306.3 823 301.5C868.7 296.7 914.3 298.3 937.2 299.2L960 300L960 541L937.2 541C914.3 541 868.7 541 823 541C777.3 541 731.7 541 686 541C640.3 541 594.7 541 548.8 541C503 541 457 541 411.2 541C365.3 541 319.7 541 274 541C228.3 541 182.7 541 137 541C91.3 541 45.7 541 22.8 541L0 541Z" fill="#373a62"></path><path d="M0 389L22.8 388C45.7 387 91.3 385 137 388.3C182.7 391.7 228.3 400.3 274 389.3C319.7 378.3 365.3 347.7 411.2 336.7C457 325.7 503 334.3 548.8 342.3C594.7 350.3 640.3 357.7 686 355.3C731.7 353 777.3 341 823 344C868.7 347 914.3 365 937.2 374L960 383L960 541L937.2 541C914.3 541 868.7 541 823 541C777.3 541 731.7 541 686 541C640.3 541 594.7 541 548.8 541C503 541 457 541 411.2 541C365.3 541 319.7 541 274 541C228.3 541 182.7 541 137 541C91.3 541 45.7 541 22.8 541L0 541Z" fill="#464782"></path><path d="M0 370L22.8 376C45.7 382 91.3 394 137 395.8C182.7 397.7 228.3 389.3 274 385.5C319.7 381.7 365.3 382.3 411.2 391.2C457 400 503 417 548.8 425.8C594.7 434.7 640.3 435.3 686 433.5C731.7 431.7 777.3 427.3 823 416.8C868.7 406.3 914.3 389.7 937.2 381.3L960 373L960 541L937.2 541C914.3 541 868.7 541 823 541C777.3 541 731.7 541 686 541C640.3 541 594.7 541 548.8 541C503 541 457 541 411.2 541C365.3 541 319.7 541 274 541C228.3 541 182.7 541 137 541C91.3 541 45.7 541 22.8 541L0 541Z" fill="#5853a4"></path><path d="M0 445L22.8 442.7C45.7 440.3 91.3 435.7 137 431.3C182.7 427 228.3 423 274 422.2C319.7 421.3 365.3 423.7 411.2 429.5C457 435.3 503 444.7 548.8 445C594.7 445.3 640.3 436.7 686 436.5C731.7 436.3 777.3 444.7 823 444.3C868.7 444 914.3 435 937.2 430.5L960 426L960 541L937.2 541C914.3 541 868.7 541 823 541C777.3 541 731.7 541 686 541C640.3 541 594.7 541 548.8 541C503 541 457 541 411.2 541C365.3 541 319.7 541 274 541C228.3 541 182.7 541 137 541C91.3 541 45.7 541 22.8 541L0 541Z" fill="#6e5ec5"></path><path d="M0 485L22.8 483.8C45.7 482.7 91.3 480.3 137 482.2C182.7 484 228.3 490 274 491.3C319.7 492.7 365.3 489.3 411.2 485C457 480.7 503 475.3 548.8 476.2C594.7 477 640.3 484 686 482.8C731.7 481.7 777.3 472.3 823 472C868.7 471.7 914.3 480.3 937.2 484.7L960 489L960 541L937.2 541C914.3 541 868.7 541 823 541C777.3 541 731.7 541 686 541C640.3 541 594.7 541 548.8 541C503 541 457 541 411.2 541C365.3 541 319.7 541 274 541C228.3 541 182.7 541 137 541C91.3 541 45.7 541 22.8 541L0 541Z" fill="#8769e6"></path></svg>