<svg id="visual" viewBox="0 0 960 540" width="960" height="540" xmlns="http://www.w3.org/2000/svg" xmlns:xlink="http://www.w3.org/1999/xlink" version="1.1"><rect x="0" y="0" width="960" height="540" fill="#000"></rect><path d="M0 329L96 352L192 376L288 351L384 348L480 331L576 336L672 350L768 334L864 369L960 344L960 541L864 541L768 541L672 541L576 541L480 541L384 541L288 541L192 541L96 541L0 541Z" fill="#2b2d42"></path><path d="M0 383L96 401L192 366L288 396L384 358L480 389L576 396L672 366L768 369L864 367L960 385L960 541L864 541L768 541L672 541L576 541L480 541L384 541L288 541L192 541L96 541L0 541Z" fill="#35385c"></path><path d="M0 401L96 385L192 387L288 386L384 389L480 399L576 413L672 404L768 400L864 396L960 418L960 541L864 541L768 541L672 541L576 541L480 541L384 541L288 541L192 541L96 541L0 541Z" fill="#414377"></path><path d="M0 421L96 425L192 438L288 413L384 439L480 425L576 431L672 443L768 433L864 428L960 443L960 541L864 541L768 541L672 541L576 541L480 541L384 541L288 541L192 541L96 541L0 541Z" fill="#4f4d93"></path><path d="M0 469L96 467L192 450L288 451L384 450L480 459L576 465L672 468L768 451L864 465L960 459L960 541L864 541L768 541L672 541L576 541L480 541L384 541L288 541L192 541L96 541L0 541Z" fill="#5f57af"></path><path d="M0 490L96 487L192 485L288 482L384 491L480 481L576 489L672 474L768 475L864 483L960 486L960 541L864 541L768 541L672 541L576 541L480 541L384 541L288 541L192 541L96 541L0 541Z" fill="#7260ca"></path><path d="M0 511L96 514L192 495L288 499L384 512L480 499L576 503L672 501L768 502L864 503L960 514L960 541L864 541L768 541L672 541L576 541L480 541L384 541L288 541L192 541L96 541L0 541Z" fill="#8769e6"></path></svg>